<?xml version="1.0" encoding="utf-8"?>
<!-- Generator: Adobe Illustrator 17.1.0, SVG Export Plug-In . SVG Version: 6.00 Build 0)  -->
<!DOCTYPE svg PUBLIC "-//W3C//DTD SVG 1.1//EN" "http://www.w3.org/Graphics/SVG/1.1/DTD/svg11.dtd">
<svg version="1.1" id="Layer_1" xmlns="http://www.w3.org/2000/svg" xmlns:xlink="http://www.w3.org/1999/xlink" x="0px" y="0px"
	 viewBox="0 0 1000 1000" enable-background="new 0 0 1000 1000" xml:space="preserve">
<g>
	<g>
		<path fill="#CCCCCC" d="M878.7,802.9l-60.5-37.1C867.1,685.9,893,594,893,500c0-94-25.9-185.9-74.8-265.8l60.5-37.1
			c55.8,91.1,74.6,196.4,85.3,302.9C974.3,602.9,958.3,702.2,878.7,802.9z"/>
	</g>
	<g>
		<path fill="#CCCCCC" d="M763.5,766.9l-58.1-40.8c46.7-66.5,71.5-144.7,71.5-226.1c0-81.4-24.7-159.6-71.4-226.1l58.1-40.8
			c55.2,78.5,84.3,170.8,84.3,266.9S818.7,688.4,763.5,766.9z"/>
	</g>
	<g>
		<path fill="#CCCCCC" d="M382.4,150.8c-169.4,0-311,121.2-342.7,281.4h72.8c30.3-120.9,139.9-210.5,269.9-210.5
			c153.5,0,278.3,124.8,278.3,278.3c0,153.4-124.8,278.2-278.3,278.2c-130.1,0-239.6-89.7-269.9-210.5H39.8
			C71.4,728,213.1,849.2,382.4,849.2c192.6,0,349.3-156.7,349.3-349.2C731.7,307.4,575,150.8,382.4,150.8z"/>
	</g>
	<polygon fill="#FC4949" points="390.5,358.2 348.9,401.6 411.8,464.5 33.2,464.5 33.2,474.1 33.2,525.9 33.2,535.5 411.8,535.5 
		348.9,598.4 390.4,639.7 530.4,497.9 	"/>
</g>
</svg>
