<?xml version="1.0" encoding="utf-8"?>
<!-- Generator: Adobe Illustrator 17.1.0, SVG Export Plug-In . SVG Version: 6.00 Build 0)  -->
<!DOCTYPE svg PUBLIC "-//W3C//DTD SVG 1.1//EN" "http://www.w3.org/Graphics/SVG/1.1/DTD/svg11.dtd">
<svg version="1.1" id="Layer_1" xmlns="http://www.w3.org/2000/svg" xmlns:xlink="http://www.w3.org/1999/xlink" x="0px" y="0px"
	 viewBox="0 0 386 65.1" enable-background="new 0 0 386 65.1" xml:space="preserve">
<g>
	<g>
		<g>
			<path fill="#283343" d="M80,60.7l-5.6-3.5c4.6-7.4,7-16,7-24.8c0-8.8-2.4-17.3-7-24.8L80,4.3c5.2,8.5,6.9,18.3,7.9,28.2
				C88.9,42.1,87.4,51.4,80,60.7z"/>
		</g>
		<g>
			<path fill="#283343" d="M69.2,57.4l-5.4-3.8c4.4-6.2,6.7-13.5,6.7-21.1c0-7.6-2.3-14.9-6.7-21.1l5.4-3.8
				c5.1,7.3,7.9,15.9,7.9,24.9S74.4,50.1,69.2,57.4z"/>
		</g>
		<g>
			<path fill="#283343" d="M33.7,0C18,0,4.8,11.3,1.8,26.2h6.8C11.4,15,21.6,6.6,33.7,6.6c14.3,0,25.9,11.6,25.9,25.9
				c0,14.3-11.6,25.9-25.9,25.9c-12.1,0-22.3-8.4-25.1-19.6H1.8c3,14.9,16.1,26.2,31.9,26.2c17.9,0,32.5-14.6,32.5-32.5
				C66.3,14.6,51.7,0,33.7,0z"/>
		</g>
		<polygon fill="#FC4949" points="34.5,19.3 30.6,23.4 36.5,29.2 1.2,29.2 1.2,30.1 1.2,34.9 1.2,35.8 36.5,35.8 30.6,41.7 
			34.5,45.5 47.5,32.3 		"/>
	</g>
	<g>
		<path fill="#FC4949" d="M116.1,20.5h-5.3V26h-3.5V7.3c2.9,0,5.9,0,8.8,0C125.2,7.3,125.2,20.5,116.1,20.5z M110.8,17.3h5.3
			c4.5,0,4.5-6.6,0-6.6h-5.3V17.3z"/>
		<path fill="#FC4949" d="M141.8,26h-4.2l-5.4-6.2h-3.4V26h-3.5V7.3c3,0,5.9,0,8.9,0c4.4,0,6.7,3,6.7,6.2c0,2.6-1.2,5.1-4.7,5.9
			l5.6,6.4V26z M128.8,10.6v6h5.3c2.2,0,3.2-1.5,3.2-3s-1-3-3.2-3H128.8z"/>
		<path fill="#FC4949" d="M157.1,26h-13.9c0-6.2,0-12.4,0-18.6h13.9v3.4h-10.5V15h10.1v3.3h-10.1v4.2h10.5V26z"/>
		<path fill="#FC4949" d="M171.9,11.8c-0.6-1.1-2.4-2.1-4.4-2.1c-2.6,0-3.9,1.1-3.9,2.5c0,1.6,1.9,2.1,4.2,2.3
			c3.9,0.5,7.5,1.5,7.5,5.9c0,4.2-3.7,5.9-7.8,5.9c-3.8,0-6.7-1.2-8.1-4.6l2.9-1.5c0.8,2,3,3,5.2,3c2.2,0,4.3-0.8,4.3-2.8
			c0-1.8-1.8-2.5-4.3-2.7c-3.8-0.5-7.3-1.5-7.3-5.6c0-3.8,3.8-5.4,7.2-5.4c2.9,0,5.9,0.8,7.3,3.7L171.9,11.8z"/>
		<path fill="#FC4949" d="M189.5,11.8c-0.6-1.1-2.4-2.1-4.4-2.1c-2.6,0-3.9,1.1-3.9,2.5c0,1.6,1.9,2.1,4.2,2.3
			c3.9,0.5,7.5,1.5,7.5,5.9c0,4.2-3.7,5.9-7.8,5.9c-3.8,0-6.7-1.2-8.1-4.6l2.9-1.5c0.8,2,3,3,5.2,3c2.2,0,4.3-0.8,4.3-2.8
			c0-1.8-1.8-2.5-4.3-2.7c-3.8-0.5-7.3-1.5-7.3-5.6c0-3.8,3.8-5.4,7.2-5.4c2.9,0,5.9,0.8,7.3,3.7L189.5,11.8z"/>
		<path fill="#FC4949" d="M211.9,7.4V18c0,5.5-3.4,8.3-8.1,8.3c-4.5,0-8.3-2.7-8.3-8.3V7.4h3.5V18c0,3.4,1.9,5.1,4.8,5.1
			c2.9,0,4.6-1.9,4.6-5.1V7.4H211.9z"/>
		<path fill="#FC4949" d="M231.9,26h-4.2l-5.4-6.2h-3.4V26h-3.5V7.3c3,0,5.9,0,8.9,0c4.4,0,6.7,3,6.7,6.2c0,2.6-1.2,5.1-4.7,5.9
			l5.6,6.4V26z M218.9,10.6v6h5.3c2.2,0,3.2-1.5,3.2-3s-1-3-3.2-3H218.9z"/>
		<path fill="#FC4949" d="M247.2,26h-13.9c0-6.2,0-12.4,0-18.6h13.9v3.4h-10.5V15h10.1v3.3h-10.1v4.2h10.5V26z"/>
		<path fill="#283343" d="M127.4,57.9h-3l-2.3-5.9l-2-5.9l-1.9,5.9l-2.3,5.8h-3l-6.8-18.6h3.9l4.4,13.4l4.5-13.4h2.3l4.7,13.4
			l4.3-13.4h3.9L127.4,57.9z"/>
		<path fill="#283343" d="M149.5,54.4h-9.7l-1.6,3.5h-3.8l8.4-18.6h3.8l8.4,18.6h-3.8L149.5,54.4z M144.6,43.2l-3.5,7.9h6.9
			L144.6,43.2z"/>
		<path fill="#283343" d="M167.7,43.8c-0.6-1.1-2.4-2.1-4.4-2.1c-2.6,0-3.9,1.1-3.9,2.5c0,1.6,1.9,2.1,4.2,2.3
			c3.9,0.5,7.5,1.5,7.5,5.9c0,4.2-3.7,5.9-7.8,5.9c-3.8,0-6.7-1.2-8.1-4.6l2.9-1.5c0.8,2,3,3,5.2,3c2.2,0,4.3-0.8,4.3-2.8
			c0-1.8-1.8-2.5-4.3-2.7c-3.8-0.5-7.3-1.5-7.3-5.6c0-3.8,3.8-5.4,7.2-5.4c2.9,0,5.9,0.8,7.3,3.7L167.7,43.8z"/>
		<path fill="#283343" d="M186.5,57.9v-7.5h-9.2v7.5h-3.5V39.3h3.5v7.8h9.2v-7.8h3.5v18.6H186.5z"/>
		<path fill="#283343" d="M193.3,57.9V39.3h3.5v18.6H193.3z"/>
		<path fill="#283343" d="M212.3,39.2h3.5v18.7h-2.2v0l-9.8-12.6v12.6h-3.5V39.3h2.8l9.1,11.5V39.2z"/>
		<path fill="#283343" d="M232.9,43.8c-1.3-1.2-3.1-1.9-4.7-1.9c-4,0-6.4,3-6.4,6.9c0,3.1,1.8,6.2,6.4,6.2c1.5,0,2.7-0.3,4.2-1.5
			v-3.3h-4.8v-3.1h8V55c-1.8,2.1-4.2,3.4-7.4,3.4c-7,0-9.8-4.6-9.8-9.5c0-5.2,3.3-10.1,9.8-10.1c2.5,0,5,1,6.9,2.8L232.9,43.8z"/>
		<path fill="#283343" d="M255.3,43.8c-0.6-1.1-2.4-2.1-4.4-2.1c-2.6,0-3.9,1.1-3.9,2.5c0,1.6,1.9,2.1,4.2,2.3
			c3.9,0.5,7.5,1.5,7.5,5.9c0,4.2-3.7,5.9-7.8,5.9c-3.8,0-6.7-1.2-8.1-4.6l2.9-1.5c0.8,2,3,3,5.2,3c2.2,0,4.3-0.8,4.3-2.8
			c0-1.8-1.8-2.5-4.3-2.7c-3.8-0.5-7.3-1.5-7.3-5.6c0-3.8,3.8-5.4,7.2-5.4c2.9,0,5.9,0.8,7.3,3.7L255.3,43.8z"/>
		<path fill="#283343" d="M275.3,57.9h-13.9c0-6.2,0-12.4,0-18.6h13.9v3.4h-10.5v4.3h10.1v3.3h-10.1v4.2h10.5V57.9z"/>
		<path fill="#283343" d="M294.5,57.9h-4.2l-5.4-6.2h-3.4v6.2H278V39.2c3,0,5.9,0,8.9,0c4.4,0,6.7,3,6.7,6.2c0,2.6-1.2,5.1-4.7,5.9
			l5.6,6.4V57.9z M281.5,42.5v6h5.3c2.2,0,3.2-1.5,3.2-3s-1-3-3.2-3H281.5z"/>
		<path fill="#283343" d="M306.1,58h-3.6l-7.7-18.7h3.9l5.6,14.5l5.6-14.5h3.9L306.1,58z"/>
		<path fill="#283343" d="M316,57.9V39.3h3.5v18.6H316z"/>
		<path fill="#283343" d="M339.2,55.5c-1.9,1.9-4.4,2.8-7.1,2.8c-6.9,0-9.8-4.8-9.9-9.6c0-4.9,3.1-9.8,9.9-9.8c2.5,0,4.9,1,6.8,2.8
			l-2.3,2.3c-1.2-1.2-2.9-1.8-4.5-1.8c-4.5,0-6.4,3.4-6.4,6.5c0,3.1,1.8,6.3,6.4,6.3c1.6,0,3.5-0.7,4.7-1.9L339.2,55.5z"/>
		<path fill="#283343" d="M355.1,57.9h-13.9c0-6.2,0-12.4,0-18.6h13.9v3.4h-10.5v4.3h10.1v3.3h-10.1v4.2h10.5V57.9z"/>
		<path fill="#283343" d="M369.8,43.8c-0.6-1.1-2.4-2.1-4.4-2.1c-2.6,0-3.9,1.1-3.9,2.5c0,1.6,1.9,2.1,4.2,2.3
			c3.9,0.5,7.5,1.5,7.5,5.9c0,4.2-3.7,5.9-7.8,5.9c-3.8,0-6.7-1.2-8.1-4.6l2.9-1.5c0.8,2,3,3,5.2,3c2.2,0,4.3-0.8,4.3-2.8
			c0-1.8-1.8-2.5-4.3-2.7c-3.8-0.5-7.3-1.5-7.3-5.6c0-3.8,3.8-5.4,7.2-5.4c2.9,0,5.9,0.8,7.3,3.7L369.8,43.8z"/>
		<path fill="#FC4949" d="M384.8,56.2c0,2.5-3.8,2.5-3.8,0C381,53.7,384.8,53.7,384.8,56.2z"/>
	</g>
</g>
</svg>
