<?xml version="1.0" encoding="utf-8"?>
<!-- Generator: Adobe Illustrator 17.1.0, SVG Export Plug-In . SVG Version: 6.00 Build 0)  -->
<!DOCTYPE svg PUBLIC "-//W3C//DTD SVG 1.1//EN" "http://www.w3.org/Graphics/SVG/1.1/DTD/svg11.dtd">
<svg version="1.1" id="Layer_1" xmlns="http://www.w3.org/2000/svg" xmlns:xlink="http://www.w3.org/1999/xlink" x="0px" y="0px"
	 viewBox="0 378.6 1920 322.8" enable-background="new 0 378.6 1920 322.8" xml:space="preserve">
<g>
	<g>
		<g>
			<path fill="#F2F2F2" d="M397.9,680l-27.9-17.4c22.9-36.8,34.8-79.6,34.8-123.4s-11.9-86.1-34.8-123.4l27.9-16.4
				c25.9,42.3,34.3,91,39.3,140.3C442.2,587.5,434.7,633.8,397.9,680z"/>
		</g>
		<g>
			<path fill="#F2F2F2" d="M344.2,663.6l-26.9-18.9c21.9-30.8,33.3-67.2,33.3-105c0-37.8-11.4-74.1-33.3-105l26.9-18.9
				c25.4,36.3,39.3,79.1,39.3,123.9S370.1,627.3,344.2,663.6z"/>
		</g>
		<g>
			<path fill="#F2F2F2" d="M167.6,378.1C89.5,378.1,23.9,434.3,9,508.4h33.8c13.9-55.7,64.7-97.5,124.8-97.5
				c71.1,0,128.8,57.7,128.8,128.8s-57.7,128.8-128.8,128.8c-60.2,0-110.9-41.8-124.8-97.5H9C23.9,645.2,89,701.4,167.6,701.4
				c89,0,161.7-72.6,161.7-161.7C329.8,450.7,257.2,378.1,167.6,378.1z"/>
		</g>
		<polygon fill="#FC4949" points="171.6,474.1 152.2,494.5 181.6,523.3 6,523.3 6,527.8 6,551.7 6,556.2 181.6,556.2 152.2,585.5 
			171.6,604.4 236.3,538.8 		"/>
	</g>
	<g>
		<path fill="#FC4949" d="M577.5,480.1h-26.4v27.4h-17.4v-93c14.4,0,29.3,0,43.8,0C622.8,414.4,622.8,480.1,577.5,480.1z
			 M551.1,464.1h26.4c22.4,0,22.4-32.8,0-32.8h-26.4V464.1z"/>
		<path fill="#FC4949" d="M705.3,507.4h-20.9l-26.9-30.8h-16.9v30.8h-17.4v-93c14.9,0,29.3,0,44.3,0c21.9,0,33.3,14.9,33.3,30.8
			c0,12.9-6,25.4-23.4,29.3l27.9,31.8L705.3,507.4L705.3,507.4z M640.7,430.8v29.8H667c10.9,0,15.9-7.5,15.9-14.9s-5-14.9-15.9-14.9
			H640.7z"/>
		<path fill="#FC4949" d="M781.4,507.4h-69.1c0-30.8,0-61.7,0-92.5h69.1v16.9h-52.2v20.9h50.2v16.4h-50.2V490h52.2V507.4z"/>
		<path fill="#FC4949" d="M855,436.8c-3-5.5-11.9-10.4-21.9-10.4c-12.9,0-19.4,5.5-19.4,12.4c0,8,9.5,10.4,20.9,11.4
			c19.4,2.5,37.3,7.5,37.3,29.3c0,20.9-18.4,29.3-38.8,29.3c-18.9,0-33.3-6-40.3-22.9l14.4-7.5c4,9.9,14.9,14.9,25.9,14.9
			s21.4-4,21.4-13.9c0-9-9-12.4-21.4-13.4c-18.9-2.5-36.3-7.5-36.3-27.9c0-18.9,18.9-26.9,35.8-26.9c14.4,0,29.3,4,36.3,18.4
			L855,436.8z"/>
		<path fill="#FC4949" d="M942.6,436.8c-3-5.5-11.9-10.4-21.9-10.4c-12.9,0-19.4,5.5-19.4,12.4c0,8,9.5,10.4,20.9,11.4
			c19.4,2.5,37.3,7.5,37.3,29.3c0,20.9-18.4,29.3-38.8,29.3c-18.9,0-33.3-6-40.3-22.9l14.4-7.5c4,9.9,14.9,14.9,25.9,14.9
			s21.4-4,21.4-13.9c0-9-9-12.4-21.4-13.4c-18.9-2.5-36.3-7.5-36.3-27.9c0-18.9,18.9-26.9,35.8-26.9c14.4,0,29.3,4,36.3,18.4
			L942.6,436.8z"/>
		<path fill="#FC4949" d="M1054,414.9v52.7c0,27.4-16.9,41.3-40.3,41.3c-22.4,0-41.3-13.4-41.3-41.3v-52.7h17.4v52.7
			c0,16.9,9.5,25.4,23.9,25.4c14.4,0,22.9-9.5,22.9-25.4v-52.7H1054z"/>
		<path fill="#FC4949" d="M1153.5,507.4h-20.9l-26.9-30.8h-16.9v30.8h-17.4v-93c14.9,0,29.3,0,44.3,0c21.9,0,33.3,14.9,33.3,30.8
			c0,12.9-6,25.4-23.4,29.3l27.9,31.8L1153.5,507.4L1153.5,507.4z M1088.8,430.8v29.8h26.4c10.9,0,15.9-7.5,15.9-14.9
			s-5-14.9-15.9-14.9H1088.8z"/>
		<path fill="#FC4949" d="M1229.6,507.4h-69.1c0-30.8,0-61.7,0-92.5h69.1v16.9h-52.2v20.9h50.2v16.4h-50.2V490h52.2V507.4z"/>
		<path fill="#F2F2F2" d="M633.7,666.1h-14.9l-11.4-29.3l-9.9-29.3l-9.5,29.3l-11.4,28.8h-14.9l-33.8-92.5h19.4l21.9,66.7l22.4-66.7
			h11.4l23.4,66.7l21.4-66.7H667L633.7,666.1z"/>
		<path fill="#F2F2F2" d="M743.6,648.7h-48.2l-8,17.4h-18.9l41.8-92.5h18.9l41.8,92.5h-18.9L743.6,648.7z M719.3,593l-17.4,39.3
			h34.3L719.3,593z"/>
		<path fill="#F2F2F2" d="M834.2,596c-3-5.5-11.9-10.4-21.9-10.4c-12.9,0-19.4,5.5-19.4,12.4c0,8,9.5,10.4,20.9,11.4
			c19.4,2.5,37.3,7.5,37.3,29.3c0,20.9-18.4,29.3-38.8,29.3c-18.9,0-33.3-6-40.3-22.9l14.4-7.5c4,9.9,14.9,14.9,25.9,14.9
			s21.4-4,21.4-13.9c0-9-9-12.4-21.4-13.4c-18.9-2.5-36.3-7.5-36.3-27.9c0-18.9,18.9-26.9,35.8-26.9c14.4,0,29.3,4,36.3,18.4
			L834.2,596z"/>
		<path fill="#F2F2F2" d="M927.7,666.1v-37.3h-45.8v37.3h-17.4v-92.5h17.4v38.8h45.8v-38.8h17.4v92.5H927.7z"/>
		<path fill="#F2F2F2" d="M961.5,666.1v-92.5h17.4v92.5H961.5z"/>
		<path fill="#F2F2F2" d="M1056,573.1h17.4v93h-10.9l0,0l-48.7-62.7v62.7h-17.4v-92.5h13.9l45.3,57.2v-57.7H1056z"/>
		<path fill="#F2F2F2" d="M1158.5,596c-6.5-6-15.4-9.5-23.4-9.5c-19.9,0-31.8,14.9-31.8,34.3c0,15.4,9,30.8,31.8,30.8
			c7.5,0,13.4-1.5,20.9-7.5v-16.4h-23.9v-15.4h39.8v39.3c-9,10.4-20.9,16.9-36.8,16.9c-34.8,0-48.7-22.9-48.7-47.3
			c0-25.9,16.4-50.2,48.7-50.2c12.4,0,24.9,5,34.3,13.9L1158.5,596z"/>
		<path fill="#F2F2F2" d="M1269.9,596c-3-5.5-11.9-10.4-21.9-10.4c-12.9,0-19.4,5.5-19.4,12.4c0,8,9.5,10.4,20.9,11.4
			c19.4,2.5,37.3,7.5,37.3,29.3c0,20.9-18.4,29.3-38.8,29.3c-18.9,0-33.3-6-40.3-22.9l14.4-7.5c4,9.9,14.9,14.9,25.9,14.9
			s21.4-4,21.4-13.9c0-9-9-12.4-21.4-13.4c-18.9-2.5-36.3-7.5-36.3-27.9c0-18.9,18.9-26.9,35.8-26.9c14.4,0,29.3,4,36.3,18.4
			L1269.9,596z"/>
		<path fill="#F2F2F2" d="M1369.4,666.1h-69.1c0-30.8,0-61.7,0-92.5h69.1v16.9h-52.2v21.4h50.2v16.4h-50.2v20.9h52.2V666.1z"/>
		<path fill="#F2F2F2" d="M1464.9,666.1H1444l-26.9-30.8h-16.9v30.8h-17.4v-93c14.9,0,29.3,0,44.3,0c21.9,0,33.3,14.9,33.3,30.8
			c0,12.9-6,25.4-23.4,29.3l27.9,31.8V666.1z M1400.2,589.5v29.8h26.4c10.9,0,15.9-7.5,15.9-14.9c0-7.5-5-14.9-15.9-14.9H1400.2z"/>
		<path fill="#F2F2F2" d="M1522.6,666.6h-17.9l-38.3-93h19.4l27.9,72.1l27.9-72.1h19.4L1522.6,666.6z"/>
		<path fill="#F2F2F2" d="M1571.8,666.1v-92.5h17.4v92.5H1571.8z"/>
		<path fill="#F2F2F2" d="M1687.2,654.2c-9.5,9.5-21.9,13.9-35.3,13.9c-34.3,0-48.7-23.9-49.2-47.8c0-24.4,15.4-48.7,49.2-48.7
			c12.4,0,24.4,5,33.8,13.9l-11.4,11.4c-6-6-14.4-9-22.4-9c-22.4,0-31.8,16.9-31.8,32.3s9,31.3,31.8,31.3c8,0,17.4-3.5,23.4-9.5
			L1687.2,654.2z"/>
		<path fill="#F2F2F2" d="M1766.3,666.1h-69.1c0-30.8,0-61.7,0-92.5h69.1v16.9h-52.2v21.4h50.2v16.4h-50.2v20.9h52.2V666.1z"/>
		<path fill="#F2F2F2" d="M1839.4,596c-3-5.5-11.9-10.4-21.9-10.4c-12.9,0-19.4,5.5-19.4,12.4c0,8,9.5,10.4,20.9,11.4
			c19.4,2.5,37.3,7.5,37.3,29.3c0,20.9-18.4,29.3-38.8,29.3c-18.9,0-33.3-6-40.3-22.9l14.4-7.5c4,9.9,14.9,14.9,25.9,14.9
			s21.4-4,21.4-13.9c0-9-9-12.4-21.4-13.4c-18.9-2.5-36.3-7.5-36.3-27.9c0-18.9,18.9-26.9,35.8-26.9c14.4,0,29.3,4,36.3,18.4
			L1839.4,596z"/>
		<path fill="#FC4949" d="M1914,657.6c0,12.4-18.9,12.4-18.9,0S1914,645.2,1914,657.6z"/>
	</g>
</g>
</svg>
