<?xml version="1.0" encoding="utf-8"?>
<!-- Generator: Adobe Illustrator 17.1.0, SVG Export Plug-In . SVG Version: 6.00 Build 0)  -->
<!DOCTYPE svg PUBLIC "-//W3C//DTD SVG 1.1//EN" "http://www.w3.org/Graphics/SVG/1.1/DTD/svg11.dtd">
<svg version="1.1" id="Layer_1" xmlns="http://www.w3.org/2000/svg" xmlns:xlink="http://www.w3.org/1999/xlink" x="0px" y="0px"
	 viewBox="710 498.6 500 82.8" enable-background="new 710 498.6 500 82.8" xml:space="preserve">
<g>
	<g>
		<g>
			<path fill="#283343" d="M815.2,575.9l-7.2-4.5c5.9-9.5,9-20.5,9-31.8s-3.1-22.2-9-31.8l7.2-4.2c6.7,10.9,8.8,23.4,10.1,36.1
				C826.6,552.1,824.7,564,815.2,575.9z"/>
		</g>
		<g>
			<path fill="#283343" d="M801.4,571.7l-6.9-4.9c5.6-7.9,8.6-17.3,8.6-27s-2.9-19.1-8.6-27l6.9-4.9c6.5,9.4,10.1,20.4,10.1,31.9
				S808.1,562.3,801.4,571.7z"/>
		</g>
		<g>
			<path fill="#283343" d="M755.9,498.1c-20.1,0-37,14.5-40.9,33.6h8.7c3.6-14.3,16.7-25.1,32.2-25.1c18.3,0,33.2,14.9,33.2,33.2
				s-14.9,33.2-33.2,33.2c-15.5,0-28.6-10.8-32.2-25.1H715c3.8,19.1,20.6,33.6,40.9,33.6c22.9,0,41.6-18.7,41.6-41.6
				C797.7,516.8,779,498.1,755.9,498.1z"/>
		</g>
		<polygon fill="#FC4949" points="756.9,522.8 751.9,528.1 759.5,535.5 714.3,535.5 714.3,536.7 714.3,542.8 714.3,544 759.5,544 
			751.9,551.5 756.9,556.4 773.6,539.5 		"/>
	</g>
	<g>
		<path fill="#FC4949" d="M861.5,524.4h-6.8v7h-4.5v-24c3.7,0,7.6,0,11.3,0C873.1,507.5,873.1,524.4,861.5,524.4z M854.7,520.3h6.8
			c5.8,0,5.8-8.5,0-8.5h-6.8V520.3z"/>
		<path fill="#FC4949" d="M894.4,531.4H889l-6.9-7.9h-4.4v7.9h-4.5v-24c3.8,0,7.6,0,11.4,0c5.6,0,8.6,3.8,8.6,7.9
			c0,3.3-1.5,6.5-6,7.6l7.2,8.2V531.4L894.4,531.4z M877.8,511.7v7.7h6.8c2.8,0,4.1-1.9,4.1-3.8s-1.3-3.8-4.1-3.8H877.8z"/>
		<path fill="#FC4949" d="M914,531.4h-17.8c0-7.9,0-15.9,0-23.8H914v4.4h-13.5v5.4h12.9v4.2h-12.9v5.4H914V531.4z"/>
		<path fill="#FC4949" d="M933,513.2c-0.8-1.4-3.1-2.7-5.6-2.7c-3.3,0-5,1.4-5,3.2c0,2,2.4,2.7,5.4,2.9c5,0.6,9.6,1.9,9.6,7.6
			c0,5.4-4.7,7.6-10,7.6c-4.9,0-8.6-1.5-10.4-5.9l3.7-1.9c1,2.6,3.8,3.8,6.7,3.8s5.5-1,5.5-3.6c0-2.3-2.3-3.2-5.5-3.5
			c-4.9-0.6-9.4-1.9-9.4-7.2c0-4.9,4.9-6.9,9.2-6.9c3.7,0,7.6,1,9.4,4.7L933,513.2z"/>
		<path fill="#FC4949" d="M955.5,513.2c-0.8-1.4-3.1-2.7-5.6-2.7c-3.3,0-5,1.4-5,3.2c0,2,2.4,2.7,5.4,2.9c5,0.6,9.6,1.9,9.6,7.6
			c0,5.4-4.7,7.6-10,7.6c-4.9,0-8.6-1.5-10.4-5.9l3.7-1.9c1,2.6,3.8,3.8,6.7,3.8s5.5-1,5.5-3.6c0-2.3-2.3-3.2-5.5-3.5
			c-4.9-0.6-9.4-1.9-9.4-7.2c0-4.9,4.9-6.9,9.2-6.9c3.7,0,7.6,1,9.4,4.7L955.5,513.2z"/>
		<path fill="#FC4949" d="M984.2,507.6v13.6c0,7-4.4,10.6-10.4,10.6c-5.8,0-10.6-3.5-10.6-10.6v-13.6h4.5v13.6
			c0,4.4,2.4,6.5,6.1,6.5s5.9-2.4,5.9-6.5v-13.6H984.2z"/>
		<path fill="#FC4949" d="M1009.8,531.4h-5.4l-6.9-7.9h-4.4v7.9h-4.5v-24c3.8,0,7.6,0,11.4,0c5.6,0,8.6,3.8,8.6,7.9
			c0,3.3-1.5,6.5-6,7.6l7.2,8.2L1009.8,531.4L1009.8,531.4z M993.2,511.7v7.7h6.8c2.8,0,4.1-1.9,4.1-3.8s-1.3-3.8-4.1-3.8H993.2z"/>
		<path fill="#FC4949" d="M1029.4,531.4h-17.8c0-7.9,0-15.9,0-23.8h17.8v4.4H1016v5.4h12.9v4.2H1016v5.4h13.5V531.4z"/>
		<path fill="#283343" d="M876,572.3h-3.8l-2.9-7.6l-2.6-7.6l-2.4,7.6l-2.9,7.4h-3.8l-8.7-23.8h5l5.6,17.2l5.8-17.2h2.9l6,17.2
			l5.5-17.2h5L876,572.3z"/>
		<path fill="#283343" d="M904.3,567.8h-12.4l-2,4.5h-4.9l10.8-23.8h4.9l10.8,23.8h-4.9L904.3,567.8z M898,553.5l-4.5,10.1h8.8
			L898,553.5z"/>
		<path fill="#283343" d="M927.6,554.2c-0.8-1.4-3.1-2.7-5.6-2.7c-3.3,0-5,1.4-5,3.2c0,2,2.4,2.7,5.4,2.9c5,0.6,9.6,1.9,9.6,7.6
			c0,5.4-4.7,7.6-10,7.6c-4.9,0-8.6-1.5-10.4-5.9l3.7-1.9c1,2.6,3.8,3.8,6.7,3.8s5.5-1,5.5-3.6c0-2.3-2.3-3.2-5.5-3.5
			c-4.9-0.6-9.4-1.9-9.4-7.2c0-4.9,4.9-6.9,9.2-6.9c3.7,0,7.6,1,9.4,4.7L927.6,554.2z"/>
		<path fill="#283343" d="M951.7,572.3v-9.6h-11.8v9.6h-4.5v-23.8h4.5v10h11.8v-10h4.5v23.8H951.7z"/>
		<path fill="#283343" d="M960.4,572.3v-23.8h4.5v23.8H960.4z"/>
		<path fill="#283343" d="M984.7,548.3h4.5v24h-2.8l0,0l-12.6-16.1v16.1h-4.5v-23.8h3.6l11.7,14.7v-14.9H984.7z"/>
		<path fill="#283343" d="M1011.1,554.2c-1.7-1.5-4-2.4-6-2.4c-5.1,0-8.2,3.8-8.2,8.8c0,4,2.3,7.9,8.2,7.9c1.9,0,3.5-0.4,5.4-1.9
			v-4.2h-6.1v-4h10.2v10.1c-2.3,2.7-5.4,4.4-9.5,4.4c-9,0-12.6-5.9-12.6-12.2c0-6.7,4.2-12.9,12.6-12.9c3.2,0,6.4,1.3,8.8,3.6
			L1011.1,554.2z"/>
		<path fill="#283343" d="M1039.8,554.2c-0.8-1.4-3.1-2.7-5.6-2.7c-3.3,0-5,1.4-5,3.2c0,2,2.4,2.7,5.4,2.9c5,0.6,9.6,1.9,9.6,7.6
			c0,5.4-4.7,7.6-10,7.6c-4.9,0-8.6-1.5-10.4-5.9l3.7-1.9c1,2.6,3.8,3.8,6.7,3.8s5.5-1,5.5-3.6c0-2.3-2.3-3.2-5.5-3.5
			c-4.9-0.6-9.4-1.9-9.4-7.2c0-4.9,4.9-6.9,9.2-6.9c3.7,0,7.6,1,9.4,4.7L1039.8,554.2z"/>
		<path fill="#283343" d="M1065.4,572.3h-17.8c0-7.9,0-15.9,0-23.8h17.8v4.4H1052v5.5h12.9v4.2H1052v5.4h13.5V572.3z"/>
		<path fill="#283343" d="M1090,572.3h-5.4l-6.9-7.9h-4.4v7.9h-4.5v-24c3.8,0,7.6,0,11.4,0c5.6,0,8.6,3.8,8.6,7.9
			c0,3.3-1.5,6.5-6,7.6l7.2,8.2V572.3z M1073.4,552.6v7.7h6.8c2.8,0,4.1-1.9,4.1-3.8s-1.3-3.8-4.1-3.8H1073.4z"/>
		<path fill="#283343" d="M1104.9,572.4h-4.6l-9.9-24h5l7.2,18.6l7.2-18.6h5L1104.9,572.4z"/>
		<path fill="#283343" d="M1117.6,572.3v-23.8h4.5v23.8H1117.6z"/>
		<path fill="#283343" d="M1147.3,569.2c-2.4,2.4-5.6,3.6-9.1,3.6c-8.8,0-12.6-6.1-12.7-12.3c0-6.3,4-12.6,12.7-12.6
			c3.2,0,6.3,1.3,8.7,3.6l-2.9,2.9c-1.5-1.5-3.7-2.3-5.8-2.3c-5.8,0-8.2,4.4-8.2,8.3s2.3,8.1,8.2,8.1c2,0,4.5-0.9,6-2.4
			L1147.3,569.2z"/>
		<path fill="#283343" d="M1167.7,572.3h-17.8c0-7.9,0-15.9,0-23.8h17.8v4.4h-13.5v5.5h12.9v4.2h-12.9v5.4h13.5V572.3z"/>
		<path fill="#283343" d="M1186.5,554.2c-0.8-1.4-3.1-2.7-5.6-2.7c-3.3,0-5,1.4-5,3.2c0,2,2.4,2.7,5.4,2.9c5,0.6,9.6,1.9,9.6,7.6
			c0,5.4-4.7,7.6-10,7.6c-4.9,0-8.6-1.5-10.4-5.9l3.7-1.9c1,2.6,3.8,3.8,6.7,3.8c2.8,0,5.5-1,5.5-3.6c0-2.3-2.3-3.2-5.5-3.5
			c-4.9-0.6-9.4-1.9-9.4-7.2c0-4.9,4.9-6.9,9.2-6.9c3.7,0,7.6,1,9.4,4.7L1186.5,554.2z"/>
		<path fill="#FC4949" d="M1205.7,570.1c0,3.2-4.9,3.2-4.9,0S1205.7,566.9,1205.7,570.1z"/>
	</g>
</g>
</svg>
